M48
; DRILL file {KiCad (6.0.0-rc1-307-gc186d1f319)} date Sunday, March 27, 2022 at 09:46:33 AM
; FORMAT={-:-/ absolute / inch / decimal}
; #@! TF.CreationDate,2022-03-27T09:46:33+01:00
; #@! TF.GenerationSoftware,Kicad,Pcbnew,(6.0.0-rc1-307-gc186d1f319)
; #@! TF.FileFunction,MixedPlating,1,2
FMAT,2
INCH
; #@! TA.AperFunction,Plated,PTH,ViaDrill
T1C0.0157
; #@! TA.AperFunction,Plated,PTH,ComponentDrill
T2C0.0320
; #@! TA.AperFunction,Plated,PTH,ComponentDrill
T3C0.0394
; #@! TA.AperFunction,Plated,PTH,ComponentDrill
T4C0.0512
; #@! TA.AperFunction,Plated,PTH,ComponentDrill
T5C0.0866
; #@! TA.AperFunction,Plated,PTH,ComponentDrill
T6C0.1496
; #@! TA.AperFunction,NonPlated,NPTH,ComponentDrill
T7C0.0390
; #@! TA.AperFunction,NonPlated,NPTH,ComponentDrill
T8C0.0472
; #@! TA.AperFunction,NonPlated,NPTH,ComponentDrill
T9C0.0670
; #@! TA.AperFunction,NonPlated,NPTH,ComponentDrill
T10C0.1181
; #@! TA.AperFunction,NonPlated,NPTH,ComponentDrill
T11C0.1350
%
G90
G05
T1
X3.2533Y-3.0059
X3.2533Y-3.6752
X3.2533Y-4.3445
X3.53Y-3.325
X3.632Y-3.696
X3.696Y-3.882
X3.7081Y-2.9193
X3.7081Y-3.5886
X3.7081Y-4.2579
X3.724Y-3.692
X3.962Y-2.5335
X3.962Y-3.2028
X3.962Y-3.872
X4.376Y-2.062
X4.382Y-3.41
X4.4Y-2.764
X4.4167Y-2.4469
X4.4167Y-3.1161
X4.4167Y-3.7854
X4.6646Y-3.7927
X4.6707Y-2.2972
X4.6707Y-2.9665
X4.6707Y-3.6358
X4.794Y-2.576
X4.9502Y-4.3008
X5.082Y-3.184
X5.094Y-1.824
X5.098Y-2.506
X5.1254Y-2.2106
X5.1254Y-2.8799
X5.1254Y-3.5492
X5.3793Y-2.5579
X5.3793Y-3.2272
X5.3793Y-3.8967
X5.4049Y-4.2142
X5.454Y-2.864
X5.7889Y-4.3235
X5.796Y-3.976
X5.826Y-4.242
X5.828Y-2.104
X5.832Y-3.428
X5.8341Y-2.4713
X5.8341Y-3.1406
X5.8341Y-3.81
X6.088Y-2.6516
X6.088Y-3.3209
X6.088Y-3.9902
X6.191Y-4.539
X6.2505Y-4.3575
X6.532Y-3.52
X6.54Y-2.186
X6.54Y-2.908
X6.5427Y-2.565
X6.5427Y-3.2343
X6.5427Y-3.9035
X6.5681Y-4.114
X6.584Y-2.782
X6.61Y-2.225
X6.613Y-4.1134
X6.738Y-4.448
X6.768Y-3.64
X6.8053Y-3.1177
X6.8845Y-4.5195
X6.9114Y-4.3208
X7.0Y-2.7177
X7.0Y-2.8177
X7.0Y-2.9177
X7.0Y-3.0177
X7.0Y-3.1177
X7.0Y-3.2177
X7.0Y-3.3177
X7.08Y-2.766
X7.08Y-2.866
X7.08Y-2.966
X7.08Y-3.066
X7.085Y-3.166
X7.085Y-3.266
X7.09Y-3.365
X7.206Y-3.21
X7.23Y-3.59
X7.3Y-3.515
T2
X3.232Y-3.198
X3.232Y-3.868
X3.236Y-2.532
X3.532Y-3.198
X3.532Y-3.868
X3.536Y-2.532
X3.94Y-2.73
X3.944Y-3.398
X3.948Y-2.058
X4.24Y-2.73
X4.244Y-3.398
X4.248Y-2.058
X4.652Y-2.494
X4.652Y-3.162
X4.656Y-1.82
X4.952Y-2.494
X4.952Y-3.162
X4.956Y-1.82
X5.124Y-4.688
X5.36Y-2.752
X5.362Y-2.098
X5.364Y-3.424
X5.424Y-4.688
X5.66Y-2.752
X5.662Y-2.098
X5.664Y-3.424
X5.8596Y-4.7431
X6.07Y-2.182
X6.074Y-3.518
X6.082Y-2.854
X6.1494Y-4.8207
X6.37Y-2.182
X6.374Y-3.518
X6.382Y-2.854
X6.678Y-2.3177
X6.678Y-2.4177
X6.678Y-2.5177
X6.678Y-2.6177
X6.678Y-2.7177
X6.678Y-2.8177
X6.678Y-2.9177
X6.678Y-3.0177
X6.678Y-3.1177
X6.678Y-3.2177
X6.678Y-3.3177
X6.678Y-3.4177
X6.7302Y-2.2677
X6.7302Y-2.3677
X6.7302Y-2.4677
X6.7302Y-2.5677
X6.7302Y-2.6677
X6.7302Y-2.7677
X6.7302Y-2.8677
X6.7302Y-2.9677
X6.7302Y-3.0677
X6.7302Y-3.1677
X6.7302Y-3.2677
X6.7302Y-3.3677
X6.8476Y-3.5673
X6.9476Y-3.5673
X7.01Y-4.9289
X7.0476Y-3.5673
X7.1476Y-3.5673
X7.16Y-4.6691
X7.278Y-2.3177
X7.278Y-2.4177
X7.278Y-2.5177
X7.278Y-2.6177
X7.278Y-2.7177
X7.278Y-2.8177
X7.278Y-2.9177
X7.278Y-3.0177
X7.278Y-3.1177
X7.278Y-3.2177
X7.278Y-3.3177
X7.278Y-3.4177
X7.3294Y-2.2677
X7.3294Y-2.3677
X7.3294Y-2.4677
X7.3294Y-2.5677
X7.3294Y-2.6677
X7.3294Y-2.7677
X7.3294Y-2.8677
X7.3294Y-2.9677
X7.3294Y-3.0677
X7.3294Y-3.1677
X7.3294Y-3.2677
X7.3294Y-3.3677
T4
X7.067Y-3.695
X7.323Y-3.695
T5
X3.7402Y-2.63
X3.7402Y-3.3
X4.88Y-4.1
X6.575Y-4.345
X6.745Y-3.815
X7.3Y-4.19
T6
X5.865Y-2.7
T7
X3.1768Y-2.6063
X3.1768Y-3.2756
X3.1768Y-3.9449
X3.5878Y-2.6063
X3.5878Y-3.2756
X3.5878Y-3.9449
X3.8854Y-2.1339
X3.8854Y-2.8031
X3.8854Y-3.4724
X4.2965Y-2.1339
X4.2965Y-2.8031
X4.2965Y-3.4724
X4.5941Y-1.8976
X4.5941Y-2.5669
X4.5941Y-3.2362
X5.0051Y-1.8976
X5.0051Y-2.5669
X5.0051Y-3.2362
X5.0705Y-4.6138
X5.3028Y-2.1583
X5.3028Y-2.8276
X5.3028Y-3.497
X5.4815Y-4.6138
X5.7138Y-2.1583
X5.7138Y-2.8276
X5.7138Y-3.497
X5.824Y-4.6569
X6.0114Y-2.252
X6.0114Y-2.9213
X6.0114Y-3.5906
X6.2211Y-4.7633
X6.4224Y-2.252
X6.4224Y-2.9213
X6.4224Y-3.5906
X6.9168Y-4.9374
X7.1223Y-4.5815
T8
X7.0654Y-3.8961
X7.0654Y-3.965
X7.3409Y-3.8961
X7.3409Y-3.965
T9
X3.1657Y-2.7717
X3.1657Y-3.4409
X3.1657Y-4.1102
X3.5988Y-2.7717
X3.5988Y-3.4409
X3.5988Y-4.1102
X3.8744Y-2.2992
X3.8744Y-2.9685
X3.8744Y-3.6378
X4.3075Y-2.2992
X4.3075Y-2.9685
X4.3075Y-3.6378
X4.5831Y-2.063
X4.5831Y-2.7323
X4.5831Y-3.4016
X5.0161Y-2.063
X5.0161Y-2.7323
X5.0161Y-3.4016
X5.0594Y-4.4484
X5.2917Y-2.3236
X5.2917Y-2.9929
X5.2917Y-3.6624
X5.4925Y-4.4484
X5.7248Y-2.3236
X5.7248Y-2.9929
X5.7248Y-3.6624
X5.8562Y-4.4944
X6.0004Y-2.4173
X6.0004Y-3.0866
X6.0004Y-3.7559
X6.2745Y-4.6064
X6.4335Y-2.4173
X6.4335Y-3.0866
X6.4335Y-3.7559
X6.7681Y-4.8643
X6.9846Y-4.4892
T10
X3.1854Y-2.9193
X3.1854Y-3.5886
X3.1854Y-4.2579
X3.3823Y-3.0059
X3.3823Y-3.6752
X3.3823Y-4.3445
X3.5791Y-2.9193
X3.5791Y-3.5886
X3.5791Y-4.2579
X3.8941Y-2.4469
X3.8941Y-3.1161
X3.8941Y-3.7854
X4.0909Y-2.5335
X4.0909Y-3.2028
X4.0909Y-3.872
X4.2878Y-2.4469
X4.2878Y-3.1161
X4.2878Y-3.7854
X4.6028Y-2.2106
X4.6028Y-2.8799
X4.6028Y-3.5492
X4.7996Y-2.2972
X4.7996Y-2.9665
X4.7996Y-3.6358
X4.9965Y-2.2106
X4.9965Y-2.8799
X4.9965Y-3.5492
X5.0791Y-4.3008
X5.276Y-4.2142
X5.3114Y-2.4713
X5.3114Y-3.1406
X5.3114Y-3.81
X5.4728Y-4.3008
X5.5083Y-2.5579
X5.5083Y-3.2272
X5.5083Y-3.8967
X5.7051Y-2.4713
X5.7051Y-3.1406
X5.7051Y-3.81
X5.9134Y-4.3568
X6.0201Y-2.565
X6.0201Y-3.2343
X6.0201Y-3.9035
X6.126Y-4.3241
X6.2169Y-2.6516
X6.2169Y-3.3209
X6.2169Y-3.9902
X6.2937Y-4.4587
X6.4138Y-2.565
X6.4138Y-3.2343
X6.4138Y-3.9035
X6.6501Y-4.7734
X6.6735Y-4.5596
X6.8469Y-4.4325
T11
X3.3823Y-2.7717
X3.3823Y-3.4409
X3.3823Y-4.1102
X4.0909Y-2.2992
X4.0909Y-2.9685
X4.0909Y-3.6378
X4.7996Y-2.063
X4.7996Y-2.7323
X4.7996Y-3.4016
X5.276Y-4.4484
X5.5083Y-2.3236
X5.5083Y-2.9929
X5.5083Y-3.6624
X6.0654Y-4.5504
X6.2169Y-2.4173
X6.2169Y-3.0866
X6.2169Y-3.7559
X6.8764Y-4.6768
T3
G00X6.9453Y-3.8823
M15
G01X6.9256Y-3.8823
M16
G05
G00X6.9453Y-3.9788
M15
G01X6.9256Y-3.9788
M16
G05
G00X7.0043Y-3.8134
M15
G01X6.9846Y-3.8134
M16
G05
G00X7.0043Y-4.0477
M15
G01X6.9846Y-4.0477
M16
G05
G00X7.1618Y-3.8134
M15
G01X7.1421Y-3.8134
M16
G05
G00X7.1618Y-4.0477
M15
G01X7.1421Y-4.0477
M16
G05
G00X7.2799Y-3.8134
M15
G01X7.2602Y-3.8134
M16
G05
G00X7.2799Y-4.0477
M15
G01X7.2602Y-4.0477
M16
G05
T0
M30
